# xmcd CD database file
#
# Track frame offsets:
#	182
#	26547
#	63567
#	98127
#	127702
#	164300
#
# Disc length: 2524 seconds
#
# Revision: 1
# Processed by: cddbd v1.5.2PL0 Copyright (c) Steve Scherf et al.
# Submitted via: CDex 1.70beta2
#
DISCID=4209da06
DTITLE=Bernt Rosengren Quartet/Quintet - Surprise Party
DYEAR=1995
DGENRE=Jazz
TTITLE0=Solar
TTITLE1=I Should Care
TTITLE2=Dr. Jackle
TTITLE3=Hip walk
TTITLE4=Embraceable You
TTITLE5=Airegin
EXTD=YEAR: 1995
EXTT0=
EXTT1=
EXTT2=
EXTT3=
EXTT4=
EXTT5=
PLAYORDER=
